<?xml version="1.0" encoding="utf-8"?>
<!-- Generator: Adobe Illustrator 15.0.2, SVG Export Plug-In . SVG Version: 6.00 Build 0)  -->
<!DOCTYPE svg PUBLIC "-//W3C//DTD SVG 1.1//EN" "http://www.w3.org/Graphics/SVG/1.1/DTD/svg11.dtd">
<svg version="1.1" id="Шар_1" xmlns="http://www.w3.org/2000/svg" xmlns:xlink="http://www.w3.org/1999/xlink" x="0px" y="0px"
	 width="20px" height="20px" viewBox="0 0 20 20" enable-background="new 0 0 20 20" xml:space="preserve">
<g id="Enchanced-Scatte">
	<path id="Фігура-6-копія-4" fill="#B3B3B3" d="M18.984,6.984H6v11.985H5V6.984H1.047v-1H5V1h1v4.984h12.984V6.984z"/>
	<path id="Фігура-6-копія" fill="#808080" d="M18.984,18.984H1.047v-0.016H1V1h1v16.984h16.984V18.984z"/>
	<path id="Фігура-6-копія-8" fill="#4D82B8" d="M7,13.969H2V13h1v-1h1v-1h1v1h1v1h1V13.969z"/>
	<path id="Фігура-6-копія-9" fill="#EFD9B2" d="M13,11.969H8V11h1v-1h1V9h1v1h1v1h1V11.969z"/>
	<path id="Фігура-6-копія-1" fill="#8BAED1" d="M19,11.969h-5V11h1v-1h1V9h1v1h1v1h1V11.969z"/>
	<path id="Фігура-6-копія-1_1_" fill="#808080" d="M17,15.969h-5V15h1v-1h1v-1h1v1h1v1h1V15.969z"/>
	<path id="Фігура-6-копія-1_2_" fill="#70A593" d="M16,6.969h-5V6h1V5h1V4h1v1h1v1h1V6.969z"/>
	<path id="Фігура-6-копія-1_3_" fill="#D66244" d="M8,7.969H3V7h1V6h1V5h1v1h1v1h1V7.969z"/>
</g>
</svg>
